<?xml version="1.0" encoding="UTF-8"?><svg id="Layer_2" xmlns="http://www.w3.org/2000/svg" width="17" height="17" viewBox="0 0 17 17"><defs><style>.cls-1{fill:#e7ff36;}.cls-2{fill:#fff;}.cls-3{fill:#ff74bf;}.cls-4{fill:#dce700;}.cls-5{fill:#dbe3fd;}</style></defs><g id="Layer_1-2"><g><rect class="cls-1" x="11" y="10" width="1" height="1"/><rect class="cls-1" x="5" y="10" width="1" height="1"/><rect class="cls-3" x="11" y="11" width="1" height="1"/><rect class="cls-1" x="12" y="12" width="1" height="1"/><rect class="cls-1" x="4" y="12" width="1" height="1"/><rect class="cls-1" x="6" y="7" width="1" height="1"/><rect class="cls-1" x="6" y="6" width="1" height="1"/><rect class="cls-1" x="7" y="7" width="1" height="1"/><rect class="cls-1" x="10" y="1" width="1" height="1"/><rect class="cls-3" x="8" y="13" width="1" height="1"/><g><rect class="cls-1" x="10" width="1" height="1"/><polygon class="cls-4" points="11 0 10 0 10 1 11 1 11 0 11 0"/></g><rect class="cls-1" x="3" y="13" width="1" height="1"/><g><rect class="cls-1" x="2" y="13" width="1" height="1"/><polygon class="cls-4" points="3 13 2 13 2 14 3 14 3 13 3 13"/></g><g><rect class="cls-1" x="1" y="4" width="1" height="1"/><polygon class="cls-4" points="2 4 1 4 1 5 2 5 2 4 2 4"/></g><g><rect class="cls-1" x="7" width="1" height="1"/><polygon class="cls-4" points="8 0 7 0 7 1 8 1 8 0 8 0"/></g><rect class="cls-1" x="2" y="4" width="1" height="1"/><g><rect class="cls-1" x="2" y="3" width="1" height="1"/><polygon class="cls-4" points="3 3 2 3 2 4 3 4 3 3 3 3"/></g><g><rect class="cls-1" x="1" y="11" width="1" height="1"/><polygon class="cls-4" points="2 11 1 11 1 12 2 12 2 11 2 11"/></g><g><rect class="cls-1" x="6" width="1" height="1"/><polygon class="cls-4" points="7 0 6 0 6 1 7 1 7 0 7 0"/></g><rect class="cls-1" x="2" y="7" width="1" height="1"/><g><rect class="cls-1" y="7" width="1" height="1"/><polygon class="cls-4" points="1 7 0 7 0 8 1 8 1 7 1 7"/></g><rect class="cls-1" x="6" y="14" width="1" height="1"/><g><rect class="cls-1" x="6" y="16" width="1" height="1"/><polygon class="cls-4" points="7 16 6 16 6 17 7 17 7 16 7 16"/></g><rect class="cls-1" x="2" y="6" width="1" height="1"/><rect class="cls-1" x="5" y="14" width="1" height="1"/><g><rect class="cls-1" x="5" y="15" width="1" height="1"/><polygon class="cls-4" points="6 15 5 15 5 16 6 16 6 15 6 15"/></g><g><rect class="cls-1" x="4" y="15" width="1" height="1"/><polygon class="cls-4" points="5 15 4 15 4 16 5 16 5 15 5 15"/></g><g><rect class="cls-1" x="12" y="1" width="1" height="1"/><polygon class="cls-4" points="13 1 12 1 12 2 13 2 13 1 13 1"/></g><rect class="cls-1" x="10" y="4" width="1" height="1"/><rect class="cls-3" x="7" y="13" width="1" height="1"/><rect class="cls-1" x="7" y="15" width="1" height="1"/><rect class="cls-1" x="6" y="15" width="1" height="1"/><g><rect class="cls-1" x="1" y="5" width="1" height="1"/><polygon class="cls-4" points="2 5 1 5 1 6 2 6 2 5 2 5"/></g><g><rect class="cls-1" x="4" y="1" width="1" height="1"/><polygon class="cls-4" points="5 1 4 1 4 2 5 2 5 1 5 1"/></g><g><rect class="cls-1" x="3" y="2" width="1" height="1"/><polygon class="cls-4" points="4 2 3 2 3 3 4 3 4 2 4 2"/></g><rect class="cls-1" x="2" y="5" width="1" height="1"/><g><rect class="cls-1" x="10" y="12" width="1" height="1"/><polygon class="cls-3" points="11 12 10 12 10 13 11 13 11 12 11 12"/></g><g><rect class="cls-1" x="9" y="13" width="1" height="1"/><polygon class="cls-3" points="10 13 9 13 9 14 10 14 10 13 10 13"/></g><rect class="cls-1" x="7" y="14" width="1" height="1"/><rect class="cls-1" x="5" y="12" width="1" height="1"/><rect class="cls-1" x="3" y="6" width="1" height="1"/><rect class="cls-1" x="3" y="10" width="1" height="1"/><g><rect class="cls-1" y="6" width="1" height="1"/><polygon class="cls-4" points="1 6 0 6 0 7 1 7 1 6 1 6"/></g><rect class="cls-1" x="2" y="10" width="1" height="1"/><g><rect class="cls-1" x="13" y="2" width="1" height="1"/><polygon class="cls-4" points="14 2 13 2 13 3 14 3 14 2 14 2"/></g><rect class="cls-1" x="4" y="14" width="1" height="1"/><rect class="cls-1" x="5" y="13" width="1" height="1"/><rect class="cls-1" x="7" y="11" width="1" height="1"/><rect class="cls-1" x="8" y="12" width="1" height="1"/><rect class="cls-1" x="3" y="12" width="1" height="1"/><g><rect class="cls-1" x="7" y="16" width="1" height="1"/><polygon class="cls-4" points="8 16 7 16 7 17 8 17 8 16 8 16"/></g><g><rect class="cls-1" x="11" y="1" width="1" height="1"/><polygon class="cls-4" points="12 1 11 1 11 2 12 2 12 1 12 1"/></g><rect class="cls-1" x="1" y="7" width="1" height="1"/><g><rect class="cls-1" x="1" y="12" width="1" height="1"/><polygon class="cls-4" points="2 12 1 12 1 13 2 13 2 12 2 12"/></g><rect class="cls-1" x="3" y="7" width="1" height="1"/><rect class="cls-1" x="11" y="12" width="1" height="1"/><rect class="cls-1" x="4" y="10" width="1" height="1"/><g><rect class="cls-1" y="9" width="1" height="1"/><polygon class="cls-4" points="1 9 0 9 0 10 1 10 1 9 1 9"/></g><rect class="cls-1" x="1" y="9" width="1" height="1"/><rect class="cls-1" x="7" y="7" width="1" height="1"/><rect class="cls-1" x="10" y="3" width="1" height="1"/><rect class="cls-1" x="1" y="10" width="1" height="1"/><rect class="cls-1" x="2" y="9" width="1" height="1"/><rect class="cls-1" x="3" y="9" width="1" height="1"/><g><rect class="cls-1" y="10" width="1" height="1"/><polygon class="cls-4" points="1 10 0 10 0 11 1 11 1 10 1 10"/></g><rect class="cls-1" x="4" y="13" width="1" height="1"/><rect class="cls-1" x="4" y="11" width="1" height="1"/><rect class="cls-1" x="3" y="11" width="1" height="1"/><rect class="cls-1" x="2" y="11" width="1" height="1"/><rect class="cls-1" x="1" y="6" width="1" height="1"/><g><rect class="cls-1" x="3" y="14" width="1" height="1"/><polygon class="cls-4" points="4 14 3 14 3 15 4 15 4 14 4 14"/></g><rect class="cls-1" x="2" y="12" width="1" height="1"/><rect class="cls-1" x="6" y="10" width="1" height="1"/><rect class="cls-1" x="7" y="10" width="1" height="1"/><rect class="cls-1" x="10" y="2" width="1" height="1"/><rect class="cls-1" x="5" y="9" width="1" height="1"/><rect class="cls-1" x="6" y="9" width="1" height="1"/><rect class="cls-1" x="7" y="9" width="1" height="1"/><rect class="cls-1" x="4" y="9" width="1" height="1"/><rect class="cls-1" x="7" y="6" width="1" height="1"/><g><rect class="cls-1" x="5" y="1" width="1" height="1"/><polygon class="cls-4" points="6 1 5 1 5 2 6 2 6 1 6 1"/></g><rect class="cls-1" x="5" y="5" width="1" height="1"/><rect class="cls-1" x="6" y="13" width="1" height="1"/><rect class="cls-1" x="6" y="3" width="1" height="1"/><rect class="cls-1" x="13" y="5" width="1" height="1"/><rect class="cls-1" x="14" y="5" width="1" height="1"/><rect class="cls-1" x="12" y="3" width="1" height="1"/><rect class="cls-1" x="6" y="1" width="1" height="1"/><g><rect class="cls-1" x="10" y="16" width="1" height="1"/><polygon class="cls-4" points="11 16 10 16 10 17 11 17 11 16 11 16"/></g><rect class="cls-1" x="7" y="3" width="1" height="1"/><rect class="cls-1" x="7" y="2" width="1" height="1"/><g><rect class="cls-1" x="5" y="11" width="1" height="1"/><polygon class="cls-3" points="6 11 5 11 5 12 6 12 6 11 6 11"/></g><rect class="cls-1" x="13" y="3" width="1" height="1"/><rect class="cls-1" x="12" y="2" width="1" height="1"/><rect class="cls-1" x="7" y="4" width="1" height="1"/><rect class="cls-3" x="6" y="12" width="1" height="1"/><rect class="cls-1" x="5" y="4" width="1" height="1"/><rect class="cls-1" x="14" y="4" width="1" height="1"/><rect class="cls-1" x="13" y="4" width="1" height="1"/><rect class="cls-1" x="11" y="2" width="1" height="1"/><rect class="cls-1" x="11" y="4" width="1" height="1"/><rect class="cls-1" x="5" y="3" width="1" height="1"/><rect class="cls-1" x="4" y="2" width="1" height="1"/><rect class="cls-1" x="6" y="4" width="1" height="1"/><rect class="cls-1" x="4" y="4" width="1" height="1"/><rect class="cls-1" x="6" y="5" width="1" height="1"/><rect class="cls-1" x="7" y="1" width="1" height="1"/><rect class="cls-1" x="10" y="15" width="1" height="1"/><rect class="cls-1" x="11" y="3" width="1" height="1"/><rect class="cls-1" x="12" y="4" width="1" height="1"/><rect class="cls-1" x="5" y="2" width="1" height="1"/><rect class="cls-1" x="4" y="3" width="1" height="1"/><rect class="cls-1" x="3" y="5" width="1" height="1"/><rect class="cls-1" x="3" y="3" width="1" height="1"/><rect class="cls-1" x="3" y="4" width="1" height="1"/><rect class="cls-1" x="7" y="5" width="1" height="1"/><rect class="cls-1" x="4" y="5" width="1" height="1"/><rect class="cls-1" x="6" y="2" width="1" height="1"/><rect class="cls-1" x="10" y="5" width="1" height="1"/><rect class="cls-1" x="10" y="9" width="1" height="1"/><rect class="cls-1" x="10" y="8" width="1" height="1"/><rect class="cls-1" x="10" y="7" width="1" height="1"/><rect class="cls-1" x="6" y="11" width="1" height="1"/><rect class="cls-1" x="10" y="10" width="1" height="1"/><rect class="cls-1" x="10" y="14" width="1" height="1"/><rect class="cls-1" x="10" y="13" width="1" height="1"/><rect class="cls-1" x="1" y="8" width="1" height="1"/><g><rect class="cls-1" y="8" width="1" height="1"/><polygon class="cls-4" points="1 8 0 8 0 9 1 9 1 8 1 8"/></g><rect class="cls-1" x="4" y="8" width="1" height="1"/><rect class="cls-1" x="3" y="8" width="1" height="1"/><rect class="cls-1" x="2" y="8" width="1" height="1"/><g><rect class="cls-1" x="15" y="5" width="1" height="1"/><polygon class="cls-4" points="16 5 15 5 15 6 16 6 16 5 16 5"/></g><rect class="cls-1" x="6" y="8" width="1" height="1"/><rect class="cls-1" x="5" y="8" width="1" height="1"/><rect class="cls-1" x="11" y="8" width="1" height="1"/><rect class="cls-1" x="10" y="8" width="1" height="1"/><rect class="cls-1" x="7" y="8" width="1" height="1"/><rect class="cls-1" x="13" y="8" width="1" height="1"/><rect class="cls-1" x="12" y="8" width="1" height="1"/><g><rect class="cls-1" x="16" y="8" width="1" height="1"/><polygon class="cls-4" points="17 8 16 8 16 9 17 9 17 8 17 8"/></g><rect class="cls-1" x="15" y="8" width="1" height="1"/><rect class="cls-1" x="14" y="8" width="1" height="1"/><rect class="cls-1" x="13" y="7" width="1" height="1"/><rect class="cls-1" x="14" y="7" width="1" height="1"/><rect class="cls-1" x="10" y="6" width="1" height="1"/><g><rect class="cls-1" x="16" y="7" width="1" height="1"/><polygon class="cls-4" points="17 7 16 7 16 8 17 8 17 7 17 7"/></g><rect class="cls-1" x="15" y="7" width="1" height="1"/><rect class="cls-1" x="13" y="6" width="1" height="1"/><rect class="cls-1" x="14" y="6" width="1" height="1"/><rect class="cls-1" x="11" y="5" width="1" height="1"/><rect class="cls-1" x="12" y="5" width="1" height="1"/><g><rect class="cls-1" x="16" y="6" width="1" height="1"/><polygon class="cls-4" points="17 6 16 6 16 7 17 7 17 6 17 6"/></g><rect class="cls-1" x="15" y="6" width="1" height="1"/><rect class="cls-1" x="13" y="9" width="1" height="1"/><rect class="cls-1" x="14" y="9" width="1" height="1"/><rect class="cls-1" x="11" y="9" width="1" height="1"/><rect class="cls-1" x="12" y="9" width="1" height="1"/><g><rect class="cls-1" x="15" y="4" width="1" height="1"/><polygon class="cls-4" points="16 4 15 4 15 5 16 5 16 4 16 4"/></g><g><rect class="cls-1" x="16" y="9" width="1" height="1"/><polygon class="cls-4" points="17 9 16 9 16 10 17 10 17 9 17 9"/></g><rect class="cls-1" x="15" y="9" width="1" height="1"/><rect class="cls-1" x="13" y="10" width="1" height="1"/><rect class="cls-1" x="14" y="10" width="1" height="1"/><rect class="cls-1" x="12" y="10" width="1" height="1"/><g><rect class="cls-1" x="14" y="3" width="1" height="1"/><polygon class="cls-4" points="15 3 14 3 14 4 15 4 15 3 15 3"/></g><g><rect class="cls-1" x="16" y="10" width="1" height="1"/><polygon class="cls-4" points="17 10 16 10 16 11 17 11 17 10 17 10"/></g><rect class="cls-1" x="15" y="10" width="1" height="1"/><g><rect class="cls-1" x="12" y="15" width="1" height="1"/><polygon class="cls-4" points="13 15 12 15 12 16 13 16 13 15 13 15"/></g><g><rect class="cls-1" x="11" y="15" width="1" height="1"/><polygon class="cls-4" points="12 15 11 15 11 16 12 16 12 15 12 15"/></g><g><rect class="cls-1" x="13" y="14" width="1" height="1"/><polygon class="cls-4" points="14 14 13 14 13 15 14 15 14 14 14 14"/></g><rect class="cls-1" x="12" y="14" width="1" height="1"/><rect class="cls-1" x="11" y="14" width="1" height="1"/><rect class="cls-1" x="13" y="13" width="1" height="1"/><rect class="cls-1" x="11" y="13" width="1" height="1"/><g><rect class="cls-1" x="14" y="13" width="1" height="1"/><polygon class="cls-4" points="15 13 14 13 14 14 15 14 15 13 15 13"/></g><rect class="cls-1" x="13" y="12" width="1" height="1"/><rect class="cls-1" x="14" y="12" width="1" height="1"/><g><rect class="cls-1" x="15" y="12" width="1" height="1"/><polygon class="cls-4" points="16 12 15 12 15 13 16 13 16 12 16 12"/></g><rect class="cls-1" x="10" y="11" width="1" height="1"/><rect class="cls-1" x="13" y="11" width="1" height="1"/><rect class="cls-1" x="14" y="11" width="1" height="1"/><g><rect class="cls-1" x="15" y="11" width="1" height="1"/><polygon class="cls-4" points="16 11 15 11 15 12 16 12 16 11 16 11"/></g><rect class="cls-1" x="12" y="11" width="1" height="1"/><g><rect class="cls-1" x="8" width="1" height="1"/><polygon class="cls-4" points="9 0 8 0 8 1 9 1 9 0 9 0"/></g><rect class="cls-1" x="8" y="15" width="1" height="1"/><rect class="cls-1" x="8" y="14" width="1" height="1"/><rect class="cls-1" x="8" y="11" width="1" height="1"/><rect class="cls-1" x="7" y="12" width="1" height="1"/><g><rect class="cls-1" x="8" y="16" width="1" height="1"/><polygon class="cls-4" points="9 16 8 16 8 17 9 17 9 16 9 16"/></g><rect class="cls-1" x="8" y="7" width="1" height="1"/><rect class="cls-1" x="12" y="13" width="1" height="1"/><rect class="cls-1" x="8" y="10" width="1" height="1"/><rect class="cls-1" x="8" y="9" width="1" height="1"/><rect class="cls-1" x="8" y="6" width="1" height="1"/><rect class="cls-1" x="8" y="3" width="1" height="1"/><rect class="cls-1" x="8" y="2" width="1" height="1"/><rect class="cls-1" x="8" y="4" width="1" height="1"/><rect class="cls-1" x="8" y="1" width="1" height="1"/><rect class="cls-1" x="8" y="5" width="1" height="1"/><rect class="cls-1" x="8" y="8" width="1" height="1"/><g><rect class="cls-1" x="9" width="1" height="1"/><polygon class="cls-4" points="10 0 9 0 9 1 10 1 10 0 10 0"/></g><rect class="cls-1" x="9" y="15" width="1" height="1"/><rect class="cls-1" x="9" y="14" width="1" height="1"/><rect class="cls-1" x="9" y="11" width="1" height="1"/><rect class="cls-1" x="9" y="12" width="1" height="1"/><g><rect class="cls-1" x="9" y="16" width="1" height="1"/><polygon class="cls-4" points="10 16 9 16 9 17 10 17 10 16 10 16"/></g><rect class="cls-1" x="9" y="7" width="1" height="1"/><rect class="cls-1" x="9" y="10" width="1" height="1"/><rect class="cls-1" x="9" y="9" width="1" height="1"/><rect class="cls-1" x="9" y="6" width="1" height="1"/><rect class="cls-1" x="9" y="3" width="1" height="1"/><rect class="cls-1" x="9" y="2" width="1" height="1"/><rect class="cls-1" x="9" y="4" width="1" height="1"/><rect class="cls-1" x="9" y="1" width="1" height="1"/><rect class="cls-1" x="9" y="5" width="1" height="1"/><rect class="cls-1" x="9" y="8" width="1" height="1"/><g><rect class="cls-2" x="7" y="6" width="1" height="1"/><polygon class="cls-3" points="8 6 7 6 7 7 8 7 8 6 8 6"/></g><g><rect class="cls-2" x="5" y="5" width="1" height="1"/><polygon class="cls-3" points="6 5 5 5 5 6 6 6 6 5 6 5"/></g><g><rect class="cls-2" x="6" y="4" width="1" height="1"/><polygon class="cls-3" points="7 4 6 4 6 5 7 5 7 4 7 4"/></g><g><rect class="cls-2" x="7" y="5" width="1" height="1"/><polygon class="cls-3" points="8 5 7 5 7 6 8 6 8 5 8 5"/></g><g><rect class="cls-2" x="5" y="8" width="1" height="1"/><polygon class="cls-3" points="6 8 5 8 5 9 6 9 6 8 6 8"/></g><g><rect class="cls-2" x="4" y="7" width="1" height="1"/><polygon class="cls-3" points="5 7 4 7 4 8 5 8 5 7 5 7"/></g><g><rect class="cls-2" x="3" y="6" width="1" height="1"/><polygon class="cls-3" points="4 6 3 6 3 7 4 7 4 6 4 6"/></g><g><rect class="cls-2" x="3" y="5" width="1" height="1"/><polygon class="cls-3" points="4 5 3 5 3 6 4 6 4 5 4 5"/></g><g><rect class="cls-2" x="4" y="4" width="1" height="1"/><polygon class="cls-3" points="5 4 4 4 4 5 5 5 5 4 5 4"/></g><g><rect class="cls-2" x="6" y="7" width="1" height="1"/><polygon class="cls-3" points="7 7 6 7 6 8 7 8 7 7 7 7"/></g><g><rect class="cls-5" x="4" y="6" width="1" height="1"/><polygon class="cls-5" points="5 6 4 6 4 7 5 7 5 6 5 6"/></g><g><rect class="cls-5" x="6" y="6" width="1" height="1"/><polygon class="cls-5" points="7 6 6 6 6 7 7 7 7 6 7 6"/></g><g><rect class="cls-5" x="5" y="7" width="1" height="1"/><polygon class="cls-5" points="6 7 5 7 5 8 6 8 6 7 6 7"/></g><g><rect class="cls-5" x="6" y="5" width="1" height="1"/><polygon class="cls-5" points="7 5 6 5 6 6 7 6 7 5 7 5"/></g><g><rect class="cls-5" x="4" y="5" width="1" height="1"/><polygon class="cls-5" points="5 5 4 5 4 6 5 6 5 5 5 5"/></g><g><rect class="cls-5" x="5" y="6" width="1" height="1"/><polygon class="cls-5" points="6 6 5 6 5 7 6 7 6 6 6 6"/></g><g><rect class="cls-2" x="13" y="6" width="1" height="1"/><polygon class="cls-3" points="14 6 13 6 13 7 14 7 14 6 14 6"/></g><g><rect class="cls-2" x="11" y="5" width="1" height="1"/><polygon class="cls-3" points="12 5 11 5 11 6 12 6 12 5 12 5"/></g><g><rect class="cls-2" x="12" y="4" width="1" height="1"/><polygon class="cls-3" points="13 4 12 4 12 5 13 5 13 4 13 4"/></g><g><rect class="cls-2" x="13" y="5" width="1" height="1"/><polygon class="cls-3" points="14 5 13 5 13 6 14 6 14 5 14 5"/></g><g><rect class="cls-2" x="11" y="8" width="1" height="1"/><polygon class="cls-3" points="12 8 11 8 11 9 12 9 12 8 12 8"/></g><g><rect class="cls-2" x="10" y="7" width="1" height="1"/><polygon class="cls-3" points="11 7 10 7 10 8 11 8 11 7 11 7"/></g><g><rect class="cls-2" x="9" y="6" width="1" height="1"/><polygon class="cls-3" points="10 6 9 6 9 7 10 7 10 6 10 6"/></g><g><rect class="cls-2" x="9" y="5" width="1" height="1"/><polygon class="cls-3" points="10 5 9 5 9 6 10 6 10 5 10 5"/></g><g><rect class="cls-2" x="10" y="4" width="1" height="1"/><polygon class="cls-3" points="11 4 10 4 10 5 11 5 11 4 11 4"/></g><g><rect class="cls-2" x="12" y="7" width="1" height="1"/><polygon class="cls-3" points="13 7 12 7 12 8 13 8 13 7 13 7"/></g><g><rect class="cls-5" x="10" y="6" width="1" height="1"/><polygon class="cls-5" points="11 6 10 6 10 7 11 7 11 6 11 6"/></g><g><rect class="cls-5" x="12" y="6" width="1" height="1"/><polygon class="cls-5" points="13 6 12 6 12 7 13 7 13 6 13 6"/></g><g><rect class="cls-5" x="11" y="7" width="1" height="1"/><polygon class="cls-5" points="12 7 11 7 11 8 12 8 12 7 12 7"/></g><g><rect class="cls-5" x="12" y="5" width="1" height="1"/><polygon class="cls-5" points="13 5 12 5 12 6 13 6 13 5 13 5"/></g><g><rect class="cls-5" x="10" y="5" width="1" height="1"/><polygon class="cls-5" points="11 5 10 5 10 6 11 6 11 5 11 5"/></g><g><rect class="cls-5" x="11" y="6" width="1" height="1"/><polygon class="cls-5" points="12 6 11 6 11 7 12 7 12 6 12 6"/></g></g></g></svg>