<?xml version="1.0" encoding="UTF-8"?><svg id="Layer_2" xmlns="http://www.w3.org/2000/svg" width="676" height="358" xmlns:xlink="http://www.w3.org/1999/xlink" viewBox="0 0 676 358"><defs><style>.cls-1{fill:url(#linear-gradient);}.cls-2{opacity:.75;}.cls-2,.cls-3,.cls-4,.cls-5{fill:none;stroke:#1e00ff;stroke-miterlimit:10;stroke-width:.5px;}.cls-3{opacity:.5;}.cls-4{opacity:.25;}</style><linearGradient id="linear-gradient" x1="338" y1="0" x2="338" y2="358" gradientUnits="userSpaceOnUse"><stop offset=".32" stop-color="#dbe3fd"/><stop offset=".46" stop-color="#dbe3fd" stop-opacity=".77"/><stop offset=".73" stop-color="#dbe3fd" stop-opacity=".36"/><stop offset=".91" stop-color="#dbe3fd" stop-opacity=".1"/><stop offset="1" stop-color="#dbe3fd" stop-opacity="0"/></linearGradient></defs><g id="Layer_1-2"><g><rect class="cls-1" width="676" height="358"/><rect class="cls-4" x="25.5" y="25.5" width="25" height="25"/><rect class="cls-4" x="50.5" y="50.5" width="25" height="25"/><rect class="cls-4" x="75.5" y="25.5" width="25" height="25"/><rect class="cls-4" x="100.5" y="50.5" width="25" height="25"/><rect class="cls-4" x="125.5" y="25.5" width="25" height="25"/><rect class="cls-3" x="25.5" y="75.5" width="25" height="25"/><rect class="cls-4" x="150.5" y="50.5" width="25" height="25"/><rect class="cls-3" x="175.5" y="75.5" width="25" height="25"/><rect class="cls-4" x="200.5" y="50.5" width="25" height="25"/><rect class="cls-2" x="200.5" y="100.5" width="25" height="25"/><rect class="cls-4" x="250.5" y="50.5" width="25" height="25"/><rect class="cls-2" x="250.5" y="100.5" width="25" height="25"/><rect class="cls-2" x="150.5" y="100.5" width="25" height="25"/><rect class="cls-5" x="275.5" y="125.5" width="25" height="25"/><rect class="cls-5" x="325.5" y="125.5" width="25" height="25"/><rect class="cls-3" x="350.5" y="150.5" width="25" height="25"/><rect class="cls-4" x="325.5" y="175.5" width="25" height="25"/><rect class="cls-5" x="375.5" y="125.5" width="25" height="25"/><rect class="cls-4" x="275.5" y="175.5" width="25" height="25"/><rect class="cls-4" x="400.5" y="50.5" width="25" height="25"/><rect class="cls-4" x="450.5" y="50.5" width="25" height="25"/><rect class="cls-3" x="475.5" y="75.5" width="25" height="25"/><rect class="cls-2" x="450.5" y="100.5" width="25" height="25"/><rect class="cls-4" x="500.5" y="50.5" width="25" height="25"/><rect class="cls-2" x="500.5" y="100.5" width="25" height="25"/><rect class="cls-5" x="425.5" y="125.5" width="25" height="25"/><rect class="cls-3" x="450.5" y="150.5" width="25" height="25"/><rect class="cls-3" x="500.5" y="150.5" width="25" height="25"/><rect class="cls-4" x="525.5" y="175.5" width="25" height="25"/><rect class="cls-4" x="425.5" y="175.5" width="25" height="25"/><rect class="cls-4" x="525.5" y="25.5" width="25" height="25"/><rect class="cls-4" x="550.5" y="50.5" width="25" height="25"/><rect class="cls-4" x="575.5" y="25.5" width="25" height="25"/><rect class="cls-3" x="575.5" y="75.5" width="25" height="25"/><rect class="cls-4" x="625.5" y="25.5" width="25" height="25"/><rect class="cls-3" x="625.5" y="75.5" width="25" height="25"/><rect class="cls-2" x="550.5" y="100.5" width="25" height="25"/><rect class="cls-2" x="600.5" y="100.5" width="25" height="25"/><rect class="cls-3" x="600.5" y="150.5" width="25" height="25"/><rect class="cls-2" x="650.5" y="100.5" width="25" height="25"/><rect class="cls-3" x="650.5" y="150.5" width="25" height="25"/><rect class="cls-3" x="550.5" y="150.5" width="25" height="25"/><rect class="cls-5" x="25.5" y="125.5" width="25" height="25"/><rect class="cls-2" x="50.5" y="100.5" width="25" height="25"/><rect class="cls-3" x="50.5" y="150.5" width="25" height="25"/><rect class="cls-2" x="100.5" y="100.5" width="25" height="25"/><rect class="cls-3" x="100.5" y="150.5" width="25" height="25"/><rect class="cls-3" x=".5" y="150.5" width="25" height="25"/><rect class="cls-4" x="325.5" y="50.5" width="25" height="25"/><rect class="cls-4" x="350.5" y="75.5" width="25" height="25"/><rect class="cls-4" x="300.5" y="75.5" width="25" height="25"/></g></g></svg>