<?xml version="1.0" encoding="utf-8"?>
<!-- Generator: Adobe Illustrator 26.5.0, SVG Export Plug-In . SVG Version: 6.00 Build 0)  -->
<svg version="1.1" id="Layer_2_00000142153280923322900030000004124807195529481349_"
	 xmlns="http://www.w3.org/2000/svg" xmlns:xlink="http://www.w3.org/1999/xlink" x="0px" y="0px" viewBox="0 0 18.9 16.4"
	 style="enable-background:new 0 0 18.9 16.4;" xml:space="preserve">
<style type="text/css">
	.st0{fill:#FFFFFF;}
	.st1{fill:#FF74BF;}
	.st2{fill:#DBE3FD;}
</style>
<g id="Layer_1-2">
	<g>
		<g>
			<rect x="5.4" y="0.1" class="st0" width="2.6" height="2.6"/>
			<polygon class="st1" points="8,0.1 5.4,0.1 5.4,2.7 8,2.7 			"/>
		</g>
		<g>
			<rect x="8" y="2.7" class="st0" width="2.6" height="2.6"/>
			<polygon class="st1" points="10.9,2.7 8,2.7 8,5.5 10.9,5.5 			"/>
		</g>
		<g>
			<rect x="10.9" y="0.1" class="st0" width="2.6" height="2.6"/>
			<polygon class="st1" points="13.4,0.1 10.9,0.1 10.9,2.7 13.4,2.7 			"/>
		</g>
		<g>
			<rect x="13.4" y="0.1" class="st0" width="2.6" height="2.6"/>
			<polygon class="st1" points="16.3,0.1 13.4,0.1 13.4,2.7 16.3,2.7 			"/>
		</g>
		<g>
			<rect x="16.3" y="2.7" class="st0" width="2.6" height="2.6"/>
			<polygon class="st1" points="18.9,2.7 16.3,2.7 16.3,5.5 18.9,5.5 			"/>
		</g>
		<g>
			<rect x="16.3" y="5.5" class="st0" width="2.6" height="2.6"/>
			<polygon class="st1" points="18.9,5.5 16.3,5.5 16.3,8.1 18.9,8.1 			"/>
		</g>
		<g>
			<rect x="13.4" y="8.1" class="st0" width="2.6" height="2.6"/>
			<polygon class="st1" points="16.3,8.1 13.4,8.1 13.4,10.9 16.3,10.9 			"/>
		</g>
		<g>
			<rect x="10.9" y="10.9" class="st0" width="2.6" height="2.6"/>
			<polygon class="st1" points="13.4,10.9 10.9,10.9 10.9,13.5 13.4,13.5 			"/>
		</g>
		<g>
			<rect x="8" y="13.5" class="st0" width="2.6" height="2.6"/>
			<polygon class="st1" points="10.9,13.5 8,13.5 8,16.4 10.9,16.4 			"/>
		</g>
		<g>
			<rect x="5.4" y="10.9" class="st0" width="2.6" height="2.6"/>
			<polygon class="st1" points="8,10.9 5.4,10.9 5.4,13.5 8,13.5 			"/>
		</g>
		<g>
			<rect x="2.6" y="8.1" class="st0" width="2.6" height="2.6"/>
			<polygon class="st1" points="5.4,8.1 2.6,8.1 2.6,10.9 5.4,10.9 			"/>
		</g>
		<g>
			<rect y="5.5" class="st0" width="2.6" height="2.6"/>
			<polygon class="st1" points="2.6,5.5 0,5.5 0,8.1 2.6,8.1 			"/>
		</g>
		<g>
			<rect y="2.7" class="st0" width="2.6" height="2.6"/>
			<polygon class="st1" points="2.6,2.7 0,2.7 0,5.5 2.6,5.5 			"/>
		</g>
		<g>
			<rect x="2.6" y="0.1" class="st0" width="2.6" height="2.6"/>
			<polygon class="st1" points="5.4,0.1 2.6,0.1 2.6,2.7 5.4,2.7 			"/>
		</g>
		<g>
			<rect x="2.6" y="2.7" class="st2" width="2.6" height="2.6"/>
			<polygon class="st2" points="5.4,2.7 2.6,2.7 2.6,5.5 5.4,5.5 			"/>
		</g>
		<g>
			<rect x="5.4" y="2.7" class="st2" width="2.6" height="2.6"/>
			<polygon class="st2" points="8,2.7 5.4,2.7 5.4,5.5 8,5.5 			"/>
		</g>
		<g>
			<rect x="2.6" y="5.5" class="st2" width="2.6" height="2.6"/>
			<polygon class="st2" points="5.4,5.5 2.6,5.5 2.6,8.1 5.4,8.1 			"/>
		</g>
		<g>
			<rect x="5.4" y="5.5" class="st2" width="2.6" height="2.6"/>
			<polygon class="st2" points="8,5.5 5.4,5.5 5.4,8.1 8,8.1 			"/>
		</g>
		<g>
			<rect x="8" y="5.5" class="st2" width="2.6" height="2.6"/>
			<polygon class="st2" points="10.9,5.5 8,5.5 8,8.1 10.9,8.1 			"/>
		</g>
		<g>
			<rect x="5.4" y="8.1" class="st2" width="2.6" height="2.6"/>
			<polygon class="st2" points="8,8.1 5.4,8.1 5.4,10.9 8,10.9 			"/>
		</g>
		<g>
			<rect x="8" y="8.1" class="st2" width="2.6" height="2.6"/>
			<polygon class="st2" points="10.9,8.1 8,8.1 8,10.9 10.9,10.9 			"/>
		</g>
		<g>
			<rect x="8" y="10.9" class="st2" width="2.6" height="2.6"/>
			<polygon class="st2" points="10.9,10.9 8,10.9 8,13.5 10.9,13.5 			"/>
		</g>
		<g>
			<rect x="10.9" y="8.1" class="st2" width="2.6" height="2.6"/>
			<polygon class="st2" points="13.4,8.1 10.9,8.1 10.9,10.9 13.4,10.9 			"/>
		</g>
		<g>
			<rect x="10.9" y="5.5" class="st2" width="2.6" height="2.6"/>
			<polygon class="st2" points="13.4,5.5 10.9,5.5 10.9,8.1 13.4,8.1 			"/>
		</g>
		<g>
			<rect x="13.4" y="5.5" class="st2" width="2.6" height="2.6"/>
			<polygon class="st2" points="16.3,5.5 13.4,5.5 13.4,8.1 16.3,8.1 			"/>
		</g>
		<g>
			<rect x="10.9" y="2.7" class="st2" width="2.6" height="2.6"/>
			<polygon class="st2" points="13.4,2.7 10.9,2.7 10.9,5.5 13.4,5.5 			"/>
		</g>
		<g>
			<rect x="13.4" y="2.7" class="st2" width="2.6" height="2.6"/>
			<polygon class="st2" points="16.3,2.7 13.4,2.7 13.4,5.5 16.3,5.5 			"/>
		</g>
	</g>
</g>
</svg>
